<svg width="132" height="136" viewBox="0 0 132 136" fill="none" xmlns="http://www.w3.org/2000/svg">
<path fill-rule="evenodd" clip-rule="evenodd" d="M131.879 40.6097C131.88 38.1893 131.195 35.8128 129.896 33.7266C128.596 31.6404 126.73 29.9204 124.489 28.7449L72.9595 1.70861C70.8248 0.588526 68.4232 0.000732422 65.9812 0.000732422C63.5393 0.000732422 61.1376 0.588526 59.003 1.70861L7.47315 28.7449C5.23291 29.9204 3.36633 31.6404 2.06691 33.7266C0.767492 35.8128 0.0825231 38.1893 0.0830081 40.6097V122.429C0.0830081 126.028 1.59682 129.479 4.29141 132.024C6.98601 134.569 10.6407 135.999 14.4514 135.999H45.5829C46.8531 135.999 48.0714 135.522 48.9696 134.674C49.8678 133.826 50.3724 132.675 50.3724 131.475V108.46C50.3724 107.261 50.877 106.11 51.7752 105.262C52.6734 104.414 53.8916 103.937 55.1618 103.937H76.7623C78.0325 103.937 79.2508 104.414 80.149 105.262C81.0471 106.11 81.5518 107.261 81.5518 108.46V131.475C81.5518 132.675 82.0564 133.826 82.9546 134.674C83.8528 135.522 85.071 135.999 86.3412 135.999H117.473C121.283 135.999 124.938 134.569 127.633 132.024C130.327 129.479 131.841 126.028 131.841 122.429V40.6097H131.879ZM122.3 40.6097V122.429C122.3 123.628 121.796 124.779 120.898 125.627C119.999 126.475 118.781 126.952 117.511 126.952H91.169V108.46C91.169 104.861 89.6552 101.41 86.9606 98.8648C84.266 96.3199 80.6113 94.8902 76.8006 94.8902H55.2001C51.3894 94.8902 47.7347 96.3199 45.0401 98.8648C42.3456 101.41 40.8317 104.861 40.8317 108.46V126.952H14.4897C13.2195 126.952 12.0012 126.475 11.103 125.627C10.2048 124.779 9.70025 123.628 9.70025 122.429V40.6097C9.69936 39.8025 9.92717 39.0098 10.36 38.3139C10.7929 37.6179 11.4151 37.044 12.162 36.6517L63.6535 9.61548C64.3655 9.24158 65.1666 9.04535 65.9812 9.04535C66.7958 9.04535 67.597 9.24158 68.3089 9.61548L119.839 36.6517C120.586 37.044 121.208 37.6179 121.641 38.3139C122.074 39.0098 122.301 39.8025 122.3 40.6097Z" fill="black"/>
</svg>