<svg width="132" height="136" viewBox="0 0 161 156" fill="none" xmlns="http://www.w3.org/2000/svg">
<path d="M80.0537 151.363C122.057 151.363 156.107 118.374 156.107 77.6814C156.107 36.9883 122.057 4 80.0537 4C38.0504 4 4 36.9883 4 77.6814C4 118.374 38.0504 151.363 80.0537 151.363Z" stroke="black" stroke-width="8" stroke-miterlimit="10" stroke-linejoin="round"/>
<path d="M130.757 131.713C130.757 104.583 108.058 82.5918 80.055 82.5918C52.052 82.5918 29.3525 104.583 29.3525 131.713" stroke="black" stroke-width="8" stroke-miterlimit="10" stroke-linejoin="round"/>
<path d="M80.0523 82.5904C96.8536 82.5904 110.474 69.3951 110.474 53.1178C110.474 36.8406 96.8536 23.6453 80.0523 23.6453C63.251 23.6453 49.6309 36.8406 49.6309 53.1178C49.6309 69.3951 63.251 82.5904 80.0523 82.5904Z" stroke="black" stroke-width="8" stroke-miterlimit="10" stroke-linejoin="round"/>
</svg>
