<svg width="132" height="136" viewBox="0 0 143 117" fill="none" xmlns="http://www.w3.org/2000/svg">
<g clip-path="url(#clip0_251_7)">
<path fill-rule="evenodd" clip-rule="evenodd" d="M63.6023 0.988037C51.0225 0.991293 38.7264 4.04636 28.2687 9.76695C17.8109 15.4875 9.66116 23.6168 4.84985 33.1268C0.0385451 42.6367 -1.21825 53.1004 1.23838 63.1948C3.69501 73.2892 9.75473 82.5609 18.6514 89.8376C27.548 97.1144 38.882 102.069 51.2204 104.076C63.5587 106.083 76.3473 105.051 87.969 101.112C99.5909 97.1723 109.524 90.5018 116.513 81.9436C123.501 73.3855 127.231 63.3241 127.231 53.0315C127.223 39.2279 120.516 25.9917 108.585 16.2326C96.653 6.47353 80.4734 0.990218 63.6023 0.988037ZM63.6023 9.22081C74.1928 9.22081 84.5454 11.7903 93.3511 16.6042C102.157 21.4182 109.02 28.2605 113.073 36.2659C117.126 44.2712 118.186 53.0801 116.12 61.5786C114.054 70.077 108.954 77.8833 101.465 84.0104C93.9767 90.1374 84.4357 94.31 74.0487 96.0004C63.6617 97.6909 52.8953 96.8233 43.1109 93.5073C33.3266 90.1914 24.9638 84.5761 19.0801 77.3715C13.1963 70.1668 10.0559 61.6965 10.0559 53.0315C10.0625 41.4139 15.7061 30.2736 25.7466 22.0587C35.7871 13.8438 49.4029 9.22627 63.6023 9.22081Z" fill="black"/>
<path fill-rule="evenodd" clip-rule="evenodd" d="M141.531 109.01L109.956 83.1756C109.492 82.7825 108.936 82.4689 108.323 82.2531C107.709 82.0374 107.049 81.9239 106.381 81.9191C105.712 81.9144 105.05 82.0185 104.432 82.2255C103.813 82.4325 103.252 82.7381 102.779 83.1246C102.307 83.5111 101.933 83.9707 101.68 84.4766C101.427 84.9825 101.3 85.5245 101.306 86.0711C101.312 86.6177 101.45 87.1578 101.714 87.66C101.978 88.1622 102.361 88.6165 102.842 88.9962L134.417 114.818C134.881 115.211 135.436 115.525 136.05 115.741C136.664 115.957 137.324 116.07 137.992 116.075C138.66 116.08 139.323 115.975 139.941 115.768C140.559 115.561 141.121 115.256 141.593 114.869C142.066 114.483 142.439 114.023 142.692 113.517C142.945 113.011 143.073 112.469 143.067 111.923C143.061 111.376 142.922 110.836 142.659 110.334C142.395 109.832 142.012 109.377 141.531 108.998V109.01Z" fill="black"/>
</g>
<defs>
<clipPath id="clip0_251_7">
<rect width="143" height="117" fill="white"/>
</clipPath>
</defs>
</svg>