<svg width="2160" height="148" viewBox="0 0 2160 148" fill="none" xmlns="http://www.w3.org/2000/svg">
<path d="M2160 137.218L2108.52 137.363C2056.68 137.557 1953.72 137.848 1851.12 135.278C1748.52 132.709 1646.28 127.181 1543.68 128.975C1441.08 130.769 1338.12 139.788 1234.8 141.921C1131.48 144.006 1028.52 139.157 925.2 137.46C821.88 135.763 718.92 137.218 616.32 139.788C513.72 142.406 411.48 146.091 308.88 147.4C206.28 148.709 103.32 147.546 51.48 147.012L-6.86074e-08 146.43L-6.46928e-06 9.25546e-05L51.48 9.03044e-05C103.32 8.80384e-05 206.28 8.35378e-05 308.88 7.90531e-05C411.48 7.45683e-05 513.72 7.00992e-05 616.32 6.56144e-05C718.92 6.11296e-05 821.88 5.66291e-05 925.2 5.21129e-05C1028.52 4.75966e-05 1131.48 4.30961e-05 1234.8 3.85798e-05C1338.12 3.40635e-05 1441.08 2.9563e-05 1543.68 2.50782e-05C1646.28 2.05934e-05 1748.52 1.61244e-05 1851.12 1.16396e-05C1953.72 7.15481e-06 2056.68 2.65429e-06 2108.52 3.88291e-07L2160 -1.86197e-06L2160 137.218Z" fill="#ffd97183" fill-opacity="0.69"/>
</svg>
